<svg width="12" height="12" viewBox="0 0 12 12" fill="none" xmlns="http://www.w3.org/2000/svg">
<path d="M12 5.07853L11.999 5.07957L10.2279 6.77867L10.0067 2.12961L7.76575 5.80612L5.99951 0L4.23229 5.80508L3.04792 3.8631L2.94668 3.69528L1.99132 2.12752L1.77115 6.77659L1.70825 6.71613L0 5.07853L0.709641 8.57575L1.05168 10.2676C1.26595 10.1904 1.48415 10.1174 1.70923 10.0507L1.77214 10.032C2.15054 9.92044 2.54271 9.82349 2.94864 9.74219L3.01155 9.72968C3.01411 9.72923 3.01675 9.72878 3.01947 9.72831C3.02926 9.72664 3.03987 9.72483 3.04988 9.72238C3.97772 9.54413 4.96945 9.44719 6.00049 9.44719C7.81587 9.44719 9.51233 9.7474 10.9503 10.2686L12 5.07853Z" fill="#E1AD2B"/>
<path d="M10.9503 10.9586C10.9502 10.9586 10.9504 10.9587 10.9503 10.9586V10.9586Z" fill="#E1AD2B"/>
<path d="M10.9503 10.9586C9.51237 10.4375 7.81579 10.1383 6.00049 10.1383C4.97043 10.1383 3.97772 10.2352 3.04988 10.4135C3.03711 10.4156 3.02433 10.4176 3.01155 10.4208L2.94865 10.4333C2.54272 10.5146 2.14956 10.6115 1.77214 10.7231L1.70923 10.7418C1.48415 10.8085 1.26497 10.8815 1.05168 10.9586L1.263 12C1.40945 11.95 1.55787 11.902 1.70923 11.8572L1.77214 11.8384C2.15055 11.7269 2.54272 11.6299 2.94865 11.5486L3.01155 11.5361C3.01411 11.5357 3.01677 11.5352 3.01949 11.5348C3.02928 11.5331 3.03988 11.5313 3.04988 11.5288C3.97772 11.3506 4.96945 11.2536 6.00049 11.2536C7.7284 11.2536 9.34721 11.5247 10.739 12L10.9503 10.9586Z" fill="#E1AD2B"/>
</svg>
